<?xml version="1.0" standalone="no"?>
<!DOCTYPE svg PUBLIC "-//W3C//DTD SVG 1.0//EN" "http://www.w3.org/TR/2001/REC-SVG-20010904/DTD/svg10.dtd">
<svg id="0" data-name="Layer 2" xmlns="http://www.w3.org/2000/svg" viewBox="0 0 1152 1152" xmlns:inkscape="http://www.inkscape.org/namespaces/inkscape">
<desc>CopyRight:SVG Design Editor;
configurationStart;Unit=smInches;Dpi=96;Division=4;Grid=True;Zoom=0.5;CanvasW=1152;CanvasH=1152;configurationEnd;</desc>
<defs xmlns:inkscape="http://www.inkscape.org/namespaces/inkscape">
<style xmlns:inkscape="http://www.inkscape.org/namespaces/inkscape">
      .cls-2 {
        fill: #85221a;
      }
    </style>
</defs>
<g isVisble = "True" inkscape:label = "symbol Default Layer" inkscape:groupmode = "layer" ><g id="group_2">
<path style="fill:#85221A;stroke:none; stroke-width:1" d="m777.58,174.73l-3.72,-13.97l54.31,-94.35l35.69,20.79l-31.35,53.69l7.14,26.69l-5.9,10.55l-56.17,-3.41l0,0.01l0,0l0,0zm88.76,-174.73l13.97,3.72l54.62,94.35l-35.69,20.48l-31.04,-54l-26.69,-7.14l-6.21,-10.55l31.04,-46.86l0,0l0,0zm106.46,164.49l-10.24,10.24l-109.24,0l0,-40.97l62.38,0l19.55,-19.55l12.41,0l25.14,50.28z" class = "   cls-2" transform = "matrix(5.701581,0,0,5.701591,-4402.498,42)" vector-effect="non-scaling-stroke" pen = "5.701679,5.701675" />
</g>
</g>
</svg>
