<svg preserveAspectRatio="none" width="100%" height="100%" overflow="visible" style="display: block;" viewBox="0 0 209 62.2481" fill="none" xmlns="http://www.w3.org/2000/svg">
<g id="Group">
<g id="Group_2">
<path id="Vector" d="M167.058 37.5397L166.259 34.5384L177.927 14.2679L185.595 18.7345L178.86 30.2694L180.394 36.0036L179.126 38.2702L167.058 37.5376V37.5397ZM186.128 7.61513e-05L189.129 0.799295L200.864 21.0698L193.196 25.4698L186.527 13.8682L180.793 12.3343L179.459 10.0677L186.128 7.61513e-05ZM209 35.3397L206.8 37.5397H183.33V28.7376H196.732L200.933 24.5374H203.599L209 35.3397Z" fill="var(--fill-0, #F9F9F9)"/>
<g id="Group_3">
<path id="Vector_2" d="M0 10.4307H3.34941L8.70547 6.21119H13.7951V31.3909L9.57559 34.6737V37.5526H27.6568V34.6737L23.4373 31.3909V6.21119H28.527L33.8852 10.4307H37.2324V0.719785H0V10.4307Z" fill="var(--fill-0, #F9F9F9)"/>
<path id="Vector_3" d="M52.9654 0.719805H42.1846V6.21121H52.9654V0.719805Z" fill="var(--fill-0, #F9F9F9)"/>
<path id="Vector_4" d="M39.9072 12.3063V15.2518L44.1268 18.468V37.5526H52.9654V9.29207H50.7568L39.9072 12.3063Z" fill="var(--fill-0, #F9F9F9)"/>
<path id="Vector_5" d="M93.5473 8.95891C89.7961 8.95891 86.0471 11.1009 84.0383 13.982C82.8996 10.6325 80.4891 8.95891 76.8045 8.95891C73.5238 8.95891 70.1744 10.6325 68.0324 13.0431V9.29192H65.8217L54.9721 12.3062V15.2517L59.1916 18.4657V37.5503H68.0324V19.8042C68.9691 18.1306 70.9779 15.4515 73.9922 15.4515C75.1975 15.4515 75.8012 17.7954 75.8012 21.2093V37.5503H84.7752V19.8042C85.7119 18.1306 87.7207 15.4515 90.735 15.4515C91.9402 15.4515 92.5439 17.7954 92.5439 21.2093V37.5503H101.518V19.3359C101.518 12.4372 98.8389 8.95676 93.5494 8.95676L93.5473 8.95891Z" fill="var(--fill-0, #F9F9F9)"/>
<path id="Vector_6" d="M125.351 8.95891C122.07 8.95891 118.72 10.6325 116.578 13.0431V9.29192H114.368L103.518 12.3062V15.2517L107.738 18.4657V37.5503H116.578V19.8042C117.515 18.1306 119.524 15.4515 122.538 15.4515C123.744 15.4515 124.347 17.7954 124.347 21.2093V37.5503H133.321V19.3359C133.321 12.4372 130.642 8.95676 125.353 8.95676L125.351 8.95891Z" fill="var(--fill-0, #F9F9F9)"/>
<path id="Vector_7" d="M146.442 9.29207C141.554 9.29207 135.996 13.8468 135.996 23.1538C135.996 31.1911 137.47 37.9544 144.233 37.9544C146.309 37.9544 148.921 35.9456 150.93 33.7348H151.265V37.5526H160.106V9.29207H146.444H146.442ZM151.396 27.1069L146.977 30.9247C145.971 31.7948 144.231 28.0458 144.231 24.6298V20.9473C144.231 17.063 146.173 14.6524 147.714 14.6524H151.396V27.1091V27.1069Z" fill="var(--fill-0, #F9F9F9)"/>
</g>
</g>
<g id="Elements">
<path d="M0 61.8757V44.4965H10.8992V46.582H2.33377V51.7585H9.79439V53.7571H2.33377V59.7778H10.9737V61.8757H0Z" fill="#F9F9F9"/>
<path d="M14.6722 61.8757V44H16.9563V61.8757H14.6722Z" fill="#F9F9F9"/>
<path d="M26.3777 62.2481C25.0867 62.2481 23.9488 61.9791 22.9639 61.4412C21.9791 60.9033 21.2095 60.1543 20.655 59.1943C20.1005 58.2261 19.8233 57.1006 19.8233 55.8178C19.8233 54.8909 19.9805 54.0302 20.295 53.2358C20.6177 52.4413 21.0646 51.7544 21.6357 51.1751C22.215 50.5958 22.8895 50.1448 23.6591 49.822C24.437 49.4993 25.2812 49.3379 26.1915 49.3379C27.1763 49.3379 28.0535 49.5117 28.8232 49.8593C29.6011 50.2068 30.2425 50.6951 30.7473 51.3241C31.2604 51.9448 31.6287 52.6772 31.8521 53.5213C32.0756 54.3571 32.1211 55.2675 31.9887 56.2523H22.0826C22.0577 57.0633 22.2233 57.775 22.5791 58.3874C22.935 58.9916 23.4481 59.4633 24.1184 59.8026C24.797 60.1419 25.5998 60.3116 26.5267 60.3116C27.2053 60.3116 27.8673 60.204 28.5128 59.9888C29.1584 59.7736 29.7294 59.455 30.2259 59.033L31.1942 60.7336C30.797 61.0564 30.3252 61.3336 29.779 61.5653C29.2411 61.7888 28.6784 61.9584 28.0908 62.0743C27.5032 62.1902 26.9322 62.2481 26.3777 62.2481ZM22.2067 54.4771H29.7046C29.6715 53.4509 29.3528 52.6523 28.7487 52.0813C28.1446 51.502 27.2798 51.2123 26.1542 51.2123C25.0618 51.2123 24.1598 51.502 23.4481 52.0813C22.7364 52.6523 22.3226 53.4509 22.2067 54.4771Z" fill="#F9F9F9"/>
<path d="M34.9414 61.8757V49.7103H37.2255V51.4358C37.5648 50.9392 37.9496 50.5379 38.38 50.2317C38.8186 49.9255 39.2779 49.702 39.7579 49.5613C40.2462 49.4124 40.7386 49.3379 41.2351 49.3379C42.2613 49.3379 43.1054 49.5613 43.7675 50.0082C44.4378 50.4551 44.9137 51.0179 45.1951 51.6965C45.8406 50.7696 46.5647 50.1448 47.3675 49.822C48.1702 49.4993 48.9606 49.3379 49.7385 49.3379C50.8474 49.3379 51.7371 49.5613 52.4074 50.0082C53.0778 50.4468 53.5619 51.0096 53.8598 51.6965C54.166 52.3834 54.3191 53.0868 54.3191 53.8068V61.8757H52.035V54.4771C52.035 53.5751 51.7867 52.8468 51.2902 52.2923C50.7936 51.7379 50.0654 51.4606 49.1054 51.4606C48.4764 51.4606 47.9095 51.6013 47.4047 51.8827C46.8999 52.1558 46.4985 52.5406 46.2006 53.0372C45.9109 53.5337 45.7661 54.1047 45.7661 54.7502V61.8757H43.482V54.4771C43.482 53.5751 43.2337 52.8468 42.7372 52.2923C42.2489 51.7379 41.5206 51.4606 40.5524 51.4606C39.9317 51.4606 39.3689 51.6013 38.8641 51.8827C38.3593 52.1558 37.9579 52.5406 37.66 53.0372C37.3703 53.5337 37.2255 54.1047 37.2255 54.7502V61.8757H34.9414Z" fill="#F9F9F9"/>
<path d="M63.6187 62.2481C62.3277 62.2481 61.1898 61.9791 60.205 61.4412C59.2201 60.9033 58.4505 60.1543 57.896 59.1943C57.3415 58.2261 57.0643 57.1006 57.0643 55.8178C57.0643 54.8909 57.2215 54.0302 57.536 53.2358C57.8588 52.4413 58.3057 51.7544 58.8767 51.1751C59.456 50.5958 60.1305 50.1448 60.9001 49.822C61.678 49.4993 62.5222 49.3379 63.4325 49.3379C64.4173 49.3379 65.2946 49.5117 66.0642 49.8593C66.8421 50.2068 67.4835 50.6951 67.9883 51.3241C68.5014 51.9448 68.8697 52.6772 69.0931 53.5213C69.3166 54.3571 69.3621 55.2675 69.2297 56.2523H59.3236C59.2988 57.0633 59.4643 57.775 59.8201 58.3874C60.176 58.9916 60.6891 59.4633 61.3594 59.8026C62.038 60.1419 62.8408 60.3116 63.7677 60.3116C64.4463 60.3116 65.1084 60.204 65.7539 59.9888C66.3994 59.7736 66.9704 59.455 67.4669 59.033L68.4352 60.7336C68.038 61.0564 67.5663 61.3336 67.0201 61.5653C66.4821 61.7888 65.9194 61.9584 65.3318 62.0743C64.7442 62.1902 64.1732 62.2481 63.6187 62.2481ZM59.4477 54.4771H66.9456C66.9125 53.4509 66.5939 52.6523 65.9897 52.0813C65.3856 51.502 64.5208 51.2123 63.3953 51.2123C62.3029 51.2123 61.4008 51.502 60.6891 52.0813C59.9774 52.6523 59.5636 53.4509 59.4477 54.4771Z" fill="#F9F9F9"/>
<path d="M72.1824 61.8757V49.7103H74.4665V51.3489C74.9879 50.6372 75.5962 50.1241 76.2913 49.8096C76.9865 49.4951 77.6982 49.3379 78.4265 49.3379C79.5272 49.3379 80.4375 49.5613 81.1575 50.0082C81.8858 50.4468 82.4278 51.0096 82.7837 51.6965C83.1478 52.3834 83.3299 53.0868 83.3299 53.8068V61.8757H81.0458V54.5144C81.0458 53.5958 80.7602 52.8592 80.1892 52.3047C79.6182 51.742 78.8403 51.4606 77.8554 51.4606C77.2099 51.4606 76.6306 51.6054 76.1175 51.8951C75.6127 52.1765 75.2113 52.5778 74.9134 53.0992C74.6155 53.6206 74.4665 54.2206 74.4665 54.8992V61.8757H72.1824Z" fill="#F9F9F9"/>
<path d="M91.9269 62.2481C90.7931 62.2481 89.8787 61.9171 89.1835 61.255C88.4966 60.5929 88.1532 59.5709 88.1532 58.1888V46.1352H90.4373V49.7103H94V51.6468H90.4373V57.6178C90.4373 58.5447 90.6028 59.1985 90.9338 59.5792C91.2731 59.9516 91.7655 60.1378 92.4111 60.1378C92.7007 60.1378 92.9738 60.1047 93.2304 60.0385C93.4952 59.9723 93.7269 59.8854 93.9255 59.7778L94.3972 61.6522C94.0579 61.8343 93.6731 61.9791 93.2428 62.0867C92.8124 62.1943 92.3738 62.2481 91.9269 62.2481ZM85.3725 51.6468V49.7103H88.5008V51.6468H85.3725Z" fill="#F9F9F9"/>
<path d="M101.333 62.2357C100.373 62.2357 99.4625 62.095 98.6018 61.8136C97.7494 61.524 97.0377 61.1391 96.4666 60.6591L97.4101 58.9336C97.948 59.3805 98.5604 59.7323 99.2473 59.9888C99.9425 60.2371 100.638 60.3612 101.333 60.3612C102.193 60.3612 102.864 60.2081 103.344 59.9019C103.824 59.5874 104.064 59.1447 104.064 58.5737C104.064 58.044 103.857 57.6509 103.443 57.3944C103.029 57.1378 102.26 56.873 101.134 56.5999C99.6445 56.2606 98.5604 55.8054 97.8818 55.2344C97.2115 54.6633 96.8763 53.8771 96.8763 52.8758C96.8763 52.1641 97.0749 51.5351 97.4721 50.9889C97.8694 50.4344 98.4114 49.9999 99.0983 49.6855C99.7935 49.371 100.592 49.2137 101.494 49.2137C102.388 49.2137 103.22 49.342 103.989 49.5986C104.767 49.8468 105.442 50.211 106.013 50.691L105.131 52.4289C104.842 52.1558 104.498 51.9199 104.101 51.7213C103.712 51.5227 103.294 51.3696 102.847 51.262C102.4 51.1461 101.953 51.0882 101.507 51.0882C100.77 51.0882 100.166 51.2372 99.6942 51.5351C99.2308 51.833 98.999 52.2468 98.999 52.7765C98.999 53.3309 99.2225 53.7365 99.6694 53.993C100.125 54.2496 100.878 54.502 101.929 54.7502C103.451 55.0895 104.544 55.5447 105.206 56.1157C105.868 56.6785 106.199 57.4564 106.199 58.4495C106.199 59.2192 105.996 59.8895 105.591 60.4605C105.185 61.0233 104.618 61.4619 103.89 61.7764C103.162 62.0826 102.309 62.2357 101.333 62.2357Z" fill="#F9F9F9"/>
</g>
</g>
</svg>
