<svg preserveAspectRatio="none" width="100%" height="100%" overflow="visible" style="display: block;" viewBox="0 0 172.308 52.0444" fill="none" xmlns="http://www.w3.org/2000/svg">
<g id="Group">
<g id="Group_2">
<path id="Vector" d="M137.729 30.9491L137.07 28.4747L146.69 11.7629L153.012 15.4453L147.459 24.9552L148.723 29.6827L147.678 31.5513L137.729 30.9473V30.9491ZM153.451 0L155.925 0.658906L165.6 17.3707L159.278 20.9982L153.78 11.4334L149.053 10.1688L147.953 8.3001L153.451 0ZM172.308 29.1354L170.494 30.9491H151.145V23.6923H162.194L165.657 20.2295H167.855L172.308 29.1354Z" fill="var(--fill-0, #F9F9F9)"/>
<g id="Group_3">
<path id="Vector_2" d="M1.06904e-06 8.59943H2.76139L7.17712 5.12069H11.3732V25.8798L7.89448 28.5863V30.9597H22.8014V28.5863L19.3226 25.8798V5.12069H23.5187L27.9362 8.59943H30.6958V0.593366H1.06904e-06V8.59943Z" fill="var(--fill-0, #F9F9F9)"/>
<path id="Vector_3" d="M43.6667 0.593358H34.7786V5.12068H43.6667V0.593358Z" fill="var(--fill-0, #F9F9F9)"/>
<path id="Vector_4" d="M32.901 10.1457V12.5741L36.3798 15.2257V30.9597H43.6667V7.66066H41.8459L32.901 10.1457Z" fill="var(--fill-0, #F9F9F9)"/>
<path id="Vector_5" d="M77.124 7.38609C74.0313 7.38609 70.9405 9.15203 69.2844 11.5273C68.3456 8.7659 66.3583 7.38609 63.3206 7.38609C60.6159 7.38609 57.8545 8.7659 56.0885 10.7532V7.66064H54.2659L45.3211 10.1457V12.5741L48.7998 15.2239V30.9579H56.0885V16.3274C56.8608 14.9476 58.5169 12.7388 61.002 12.7388C61.9957 12.7388 62.4934 14.6713 62.4934 17.4858V30.9579H69.8919V16.3274C70.6642 14.9476 72.3203 12.7388 74.8054 12.7388C75.7991 12.7388 76.2968 14.6713 76.2968 17.4858V30.9579H83.6953V15.9413C83.6953 10.2538 81.4866 7.38432 77.1257 7.38432L77.124 7.38609Z" fill="var(--fill-0, #F9F9F9)"/>
<path id="Vector_6" d="M103.344 7.38609C100.639 7.38609 97.8777 8.7659 96.1118 10.7532V7.66064H94.2892L85.3443 10.1457V12.5741L88.8231 15.2239V30.9579H96.1118V16.3274C96.8841 14.9476 98.5402 12.7388 101.025 12.7388C102.019 12.7388 102.517 14.6713 102.517 17.4858V30.9579H109.915V15.9413C109.915 10.2538 107.706 7.38432 103.346 7.38432L103.344 7.38609Z" fill="var(--fill-0, #F9F9F9)"/>
<path id="Vector_7" d="M120.732 7.66066C116.703 7.66066 112.12 11.4157 112.12 19.0888C112.12 25.7151 113.335 31.291 118.911 31.291C120.622 31.291 122.776 29.6348 124.432 27.8122H124.709V30.9597H131.997V7.66066H120.734H120.732ZM124.817 22.3479L121.173 25.4954C120.344 26.2128 118.91 23.1219 118.91 20.3056V17.2697C118.91 14.0673 120.511 12.0799 121.781 12.0799H124.817V22.3497V22.3479Z" fill="var(--fill-0, #F9F9F9)"/>
</g>
</g>
<g id="Elements">
<path d="M0 51.7374V37.4094H8.98572V39.1287H1.92405V43.3964H8.07487V45.0442H1.92405V50.0078H9.04713V51.7374H0Z" fill="#F9F9F9"/>
<path d="M12.0963 51.7374V37H13.9794V51.7374H12.0963Z" fill="#F9F9F9"/>
<path d="M21.7468 52.0444C20.6824 52.0444 19.7443 51.8227 18.9323 51.3792C18.1204 50.9357 17.4859 50.3182 17.0288 49.5268C16.5716 48.7285 16.3431 47.8006 16.3431 46.7431C16.3431 45.9789 16.4727 45.2693 16.732 44.6143C16.9981 43.9593 17.3665 43.393 17.8373 42.9154C18.3149 42.4378 18.8709 42.066 19.5055 41.7999C20.1468 41.5338 20.8427 41.4008 21.5933 41.4008C22.4052 41.4008 23.1284 41.544 23.7629 41.8306C24.4043 42.1172 24.9331 42.5197 25.3493 43.0382C25.7723 43.55 26.0759 44.1538 26.2601 44.8497C26.4443 45.5388 26.4819 46.2893 26.3727 47.1013H18.2057C18.1852 47.7699 18.3217 48.3567 18.6151 48.8616C18.9085 49.3596 19.3315 49.7485 19.8841 50.0283C20.4436 50.308 21.1054 50.4479 21.8696 50.4479C22.4291 50.4479 22.9749 50.3592 23.5071 50.1818C24.0393 50.0044 24.51 49.7417 24.9194 49.3937L25.7177 50.7958C25.3902 51.0619 25.0013 51.2905 24.551 51.4815C24.1075 51.6658 23.6435 51.8056 23.1591 51.9012C22.6747 51.9967 22.2039 52.0444 21.7468 52.0444ZM18.3081 45.6378H24.4896C24.4623 44.7917 24.1996 44.1333 23.7015 43.6625C23.2035 43.1849 22.4905 42.9461 21.5626 42.9461C20.6619 42.9461 19.9182 43.1849 19.3315 43.6625C18.7447 44.1333 18.4036 44.7917 18.3081 45.6378Z" fill="#F9F9F9"/>
<path d="M28.807 51.7374V41.7078H30.6901V43.1304C30.9699 42.721 31.2871 42.3901 31.6419 42.1376C32.0035 41.8852 32.3822 41.701 32.7779 41.585C33.1805 41.4622 33.5864 41.4008 33.9958 41.4008C34.8418 41.4008 35.5378 41.585 36.0836 41.9534C36.6363 42.3218 37.0286 42.7858 37.2605 43.3453C37.7927 42.5811 38.3897 42.066 39.0516 41.7999C39.7134 41.5338 40.365 41.4008 41.0063 41.4008C41.9206 41.4008 42.654 41.585 43.2067 41.9534C43.7593 42.315 44.1585 42.779 44.4041 43.3453C44.6565 43.9116 44.7828 44.4915 44.7828 45.0851V51.7374H42.8996V45.6378C42.8996 44.8941 42.695 44.2936 42.2856 43.8365C41.8762 43.3794 41.2758 43.1508 40.4844 43.1508C39.9658 43.1508 39.4985 43.2668 39.0823 43.4988C38.6661 43.7239 38.3351 44.0412 38.0895 44.4506C37.8507 44.8599 37.7313 45.3307 37.7313 45.8629V51.7374H35.8482V45.6378C35.8482 44.8941 35.6435 44.2936 35.2342 43.8365C34.8316 43.3794 34.2312 43.1508 33.4329 43.1508C32.9212 43.1508 32.4572 43.2668 32.0411 43.4988C31.6249 43.7239 31.2939 44.0412 31.0483 44.4506C30.8095 44.8599 30.6901 45.3307 30.6901 45.8629V51.7374H28.807Z" fill="#F9F9F9"/>
<path d="M52.4497 52.0444C51.3853 52.0444 50.4472 51.8227 49.6353 51.3792C48.8233 50.9357 48.1888 50.3182 47.7317 49.5268C47.2746 48.7285 47.046 47.8006 47.046 46.7431C47.046 45.9789 47.1756 45.2693 47.4349 44.6143C47.701 43.9593 48.0694 43.393 48.5402 42.9154C49.0178 42.4378 49.5739 42.066 50.2084 41.7999C50.8497 41.5338 51.5457 41.4008 52.2962 41.4008C53.1081 41.4008 53.8313 41.544 54.4659 41.8306C55.1072 42.1172 55.636 42.5197 56.0522 43.0382C56.4752 43.55 56.7788 44.1538 56.963 44.8497C57.1472 45.5388 57.1848 46.2893 57.0756 47.1013H48.9086C48.8882 47.7699 49.0246 48.3567 49.318 48.8616C49.6114 49.3596 50.0344 49.7485 50.5871 50.0283C51.1465 50.308 51.8083 50.4479 52.5725 50.4479C53.132 50.4479 53.6778 50.3592 54.21 50.1818C54.7422 50.0044 55.213 49.7417 55.6223 49.3937L56.4206 50.7958C56.0931 51.0619 55.7042 51.2905 55.2539 51.4815C54.8104 51.6658 54.3465 51.8056 53.862 51.9012C53.3776 51.9967 52.9068 52.0444 52.4497 52.0444ZM49.011 45.6378H55.1925C55.1652 44.7917 54.9025 44.1333 54.4044 43.6625C53.9064 43.1849 53.1934 42.9461 52.2655 42.9461C51.3649 42.9461 50.6212 43.1849 50.0344 43.6625C49.4476 44.1333 49.1065 44.7917 49.011 45.6378Z" fill="#F9F9F9"/>
<path d="M59.5099 51.7374V41.7078H61.393V43.0587C61.8229 42.4719 62.3244 42.0489 62.8975 41.7897C63.4706 41.5304 64.0574 41.4008 64.6578 41.4008C65.5652 41.4008 66.3157 41.585 66.9093 41.9534C67.5097 42.315 67.9566 42.779 68.25 43.3453C68.5502 43.9116 68.7003 44.4915 68.7003 45.0851V51.7374H66.8172V45.6685C66.8172 44.9111 66.5818 44.3039 66.111 43.8468C65.6403 43.3828 64.9989 43.1508 64.187 43.1508C63.6548 43.1508 63.1772 43.2702 62.7542 43.509C62.338 43.741 62.0071 44.0719 61.7615 44.5017C61.5158 44.9316 61.393 45.4262 61.393 45.9857V51.7374H59.5099Z" fill="#F9F9F9"/>
<path d="M75.7881 52.0444C74.8533 52.0444 74.0994 51.7715 73.5263 51.2257C72.96 50.6799 72.6768 49.8372 72.6768 48.6978V38.7603H74.56V41.7078H77.4972V43.3043H74.56V48.227C74.56 48.9912 74.6964 49.5302 74.9693 49.8441C75.2491 50.1511 75.655 50.3046 76.1872 50.3046C76.426 50.3046 76.6512 50.2773 76.8627 50.2227C77.081 50.1681 77.272 50.0965 77.4358 50.0078L77.8247 51.5532C77.545 51.7033 77.2277 51.8227 76.8729 51.9114C76.5181 52.0001 76.1565 52.0444 75.7881 52.0444ZM70.3844 43.3043V41.7078H72.9634V43.3043H70.3844Z" fill="#F9F9F9"/>
<path d="M83.5426 52.0342C82.7512 52.0342 82.0007 51.9182 81.2911 51.6862C80.5883 51.4474 80.0016 51.1302 79.5308 50.7344L80.3086 49.3119C80.7521 49.6803 81.257 49.9703 81.8233 50.1818C82.3964 50.3865 82.9695 50.4888 83.5426 50.4888C84.2522 50.4888 84.8049 50.3626 85.2006 50.1101C85.5963 49.8509 85.7942 49.4859 85.7942 49.0151C85.7942 48.5784 85.6236 48.2543 85.2825 48.0428C84.9413 47.8313 84.3068 47.613 83.3789 47.3878C82.1508 47.1081 81.257 46.7328 80.6975 46.262C80.1448 45.7913 79.8685 45.1431 79.8685 44.3175C79.8685 43.7308 80.0323 43.2122 80.3598 42.7619C80.6873 42.3048 81.1342 41.9466 81.7005 41.6873C82.2736 41.428 82.932 41.2984 83.6757 41.2984C84.4125 41.2984 85.0982 41.4042 85.7328 41.6157C86.3741 41.8204 86.9302 42.1206 87.401 42.5163L86.6743 43.9491C86.4355 43.7239 86.1524 43.5295 85.8249 43.3657C85.5042 43.202 85.1596 43.0758 84.7912 42.9871C84.4228 42.8915 84.0543 42.8438 83.6859 42.8438C83.0787 42.8438 82.5806 42.9666 82.1917 43.2122C81.8096 43.4578 81.6186 43.799 81.6186 44.2357C81.6186 44.6928 81.8028 45.0271 82.1712 45.2386C82.5465 45.4501 83.1674 45.6582 84.0339 45.8629C85.2893 46.1426 86.1899 46.5179 86.7357 46.9887C87.2816 47.4526 87.5545 48.094 87.5545 48.9127C87.5545 49.5473 87.3873 50.0999 87.053 50.5707C86.7187 51.0346 86.2513 51.3963 85.6509 51.6555C85.0505 51.908 84.3477 52.0342 83.5426 52.0342Z" fill="#F9F9F9"/>
</g>
</g>
</svg>
